<svg width="64" height="20" viewBox="0 0 64 20" fill="none" xmlns="http://www.w3.org/2000/svg">
<path d="M10.001 8C11.6578 8 13.001 6.65685 13.001 5C13.001 3.34315 11.6578 2 10.001 2C8.34412 2 7.00098 3.34315 7.00098 5C7.00098 6.65685 8.34412 8 10.001 8Z" fill="#10151F"/>
<path d="M3.46615 14.4935C3.27126 15.0016 3.44533 15.571 3.87518 15.9046C5.56753 17.218 7.69299 18 10.0011 18C12.3115 18 14.439 17.2164 16.1322 15.9006C16.5618 15.5667 16.7355 14.9971 16.5403 14.4892C15.531 11.8635 12.9852 10 10.004 10C7.02129 10 4.47427 11.8656 3.46615 14.4935Z" fill="#10151F"/>
<path d="M30.268 12.896H33.088V14H28.9V5.66H30.268V12.896ZM37.1 14.108C36.476 14.108 35.912 13.968 35.408 13.688C34.904 13.4 34.508 13 34.22 12.488C33.932 11.968 33.788 11.368 33.788 10.688C33.788 10.016 33.936 9.42 34.232 8.9C34.528 8.38 34.932 7.98 35.444 7.7C35.956 7.42 36.528 7.28 37.16 7.28C37.792 7.28 38.364 7.42 38.876 7.7C39.388 7.98 39.792 8.38 40.088 8.9C40.384 9.42 40.532 10.016 40.532 10.688C40.532 11.36 40.38 11.956 40.076 12.476C39.772 12.996 39.356 13.4 38.828 13.688C38.308 13.968 37.732 14.108 37.1 14.108ZM37.1 12.92C37.452 12.92 37.78 12.836 38.084 12.668C38.396 12.5 38.648 12.248 38.84 11.912C39.032 11.576 39.128 11.168 39.128 10.688C39.128 10.208 39.036 9.804 38.852 9.476C38.668 9.14 38.424 8.888 38.12 8.72C37.816 8.552 37.488 8.468 37.136 8.468C36.784 8.468 36.456 8.552 36.152 8.72C35.856 8.888 35.62 9.14 35.444 9.476C35.268 9.804 35.18 10.208 35.18 10.688C35.18 11.4 35.36 11.952 35.72 12.344C36.088 12.728 36.548 12.92 37.1 12.92ZM44.5484 7.28C45.0604 7.28 45.5124 7.384 45.9044 7.592C46.3044 7.792 46.6164 8.044 46.8404 8.348V7.388H48.2204V14.108C48.2204 14.716 48.0924 15.256 47.8364 15.728C47.5804 16.208 47.2084 16.584 46.7204 16.856C46.2404 17.128 45.6644 17.264 44.9924 17.264C44.0964 17.264 43.3524 17.052 42.7604 16.628C42.1684 16.212 41.8324 15.644 41.7524 14.924H43.1084C43.2124 15.268 43.4324 15.544 43.7684 15.752C44.1124 15.968 44.5204 16.076 44.9924 16.076C45.5444 16.076 45.9884 15.908 46.3244 15.572C46.6684 15.236 46.8404 14.748 46.8404 14.108V13.004C46.6084 13.316 46.2924 13.58 45.8924 13.796C45.5004 14.004 45.0524 14.108 44.5484 14.108C43.9724 14.108 43.4444 13.964 42.9644 13.676C42.4924 13.38 42.1164 12.972 41.8364 12.452C41.5644 11.924 41.4284 11.328 41.4284 10.664C41.4284 10 41.5644 9.412 41.8364 8.9C42.1164 8.388 42.4924 7.992 42.9644 7.712C43.4444 7.424 43.9724 7.28 44.5484 7.28ZM46.8404 10.688C46.8404 10.232 46.7444 9.836 46.5524 9.5C46.3684 9.164 46.1244 8.908 45.8204 8.732C45.5164 8.556 45.1884 8.468 44.8364 8.468C44.4844 8.468 44.1564 8.556 43.8524 8.732C43.5484 8.9 43.3004 9.152 43.1084 9.488C42.9244 9.816 42.8324 10.208 42.8324 10.664C42.8324 11.12 42.9244 11.52 43.1084 11.864C43.3004 12.208 43.5484 12.472 43.8524 12.656C44.1644 12.832 44.4924 12.92 44.8364 12.92C45.1884 12.92 45.5164 12.832 45.8204 12.656C46.1244 12.48 46.3684 12.224 46.5524 11.888C46.7444 11.544 46.8404 11.144 46.8404 10.688ZM53.8304 6.512C53.5824 6.512 53.3744 6.428 53.2064 6.26C53.0384 6.092 52.9544 5.884 52.9544 5.636C52.9544 5.388 53.0384 5.18 53.2064 5.012C53.3744 4.844 53.5824 4.76 53.8304 4.76C54.0704 4.76 54.2744 4.844 54.4424 5.012C54.6104 5.18 54.6944 5.388 54.6944 5.636C54.6944 5.884 54.6104 6.092 54.4424 6.26C54.2744 6.428 54.0704 6.512 53.8304 6.512ZM54.5024 7.388V14H53.1344V7.388H54.5024ZM59.6344 7.28C60.1544 7.28 60.6184 7.388 61.0264 7.604C61.4424 7.82 61.7664 8.14 61.9984 8.564C62.2304 8.988 62.3464 9.5 62.3464 10.1V14H60.9904V10.304C60.9904 9.712 60.8424 9.26 60.5464 8.948C60.2504 8.628 59.8464 8.468 59.3344 8.468C58.8224 8.468 58.4144 8.628 58.1104 8.948C57.8144 9.26 57.6664 9.712 57.6664 10.304V14H56.2984V7.388H57.6664V8.144C57.8904 7.872 58.1744 7.66 58.5184 7.508C58.8704 7.356 59.2424 7.28 59.6344 7.28Z" fill="#10151F"/>
</svg>
